<svg width="40" height="44" viewBox="0 0 40 44" fill="none" xmlns="http://www.w3.org/2000/svg">
<g clip-path="url(#clip0_2032_2968)">
<path d="M11.8136 16.2286L19.8212 15.651C19.9342 15.651 20.0473 15.6603 20.1603 15.7069L24.5598 17.5236L24.6163 17.4863L24.7011 17.5795L25.1062 17.7471C25.9352 18.0918 26.8867 17.803 27.3859 17.0671C27.678 16.6292 27.7722 16.1075 27.6497 15.5951C27.5178 15.0827 27.1975 14.6635 26.7265 14.412L22.5061 12.1389C21.8278 11.7755 21.0553 11.5799 20.2828 11.5799H14.5645V10.1266H20.2828C21.3002 10.1266 22.3176 10.3781 23.2126 10.8625L27.433 13.1357C28.2526 13.5828 28.8556 14.3468 29.0817 15.2504C29.1853 15.651 29.2041 16.0609 29.1476 16.4615L35.2239 24.1473C35.8457 24.9299 37.0044 25.0789 37.8052 24.4827C38.6059 23.8865 38.7755 22.7406 38.1914 21.9394L27.0845 6.78209C25.9634 5.24493 24.1452 4.38785 22.2234 4.49032L15.0261 4.8816C14.9319 4.8816 14.8377 4.8816 14.734 4.8816C13.4151 4.8816 12.1245 4.39716 11.1448 3.52145L8.06423 0.773193L0.791504 8.61736L7.40479 14.6915C8.59179 15.7815 10.2027 16.3404 11.8136 16.2286Z" stroke="white" stroke-width="1.2" stroke-miterlimit="10"/>
<path d="M32.8119 23.4766L28.4878 18.0173C27.9132 18.7719 27.0559 19.2377 26.1421 19.3216L29.1944 22.9828C30.0988 24.0635 31.6532 24.2684 32.8119 23.4766Z" stroke="white" stroke-width="1.2" stroke-miterlimit="10"/>
<path d="M19.8115 26.7094L15.3179 21.334C14.5737 20.4489 13.3678 20.1694 12.3315 20.5793L16.2034 25.2188L19.8115 26.7094Z" stroke="white" stroke-width="1.2" stroke-miterlimit="10"/>
<path d="M20.1885 17.2908L24.6821 22.6662C25.4263 23.5512 26.6322 23.8307 27.6685 23.4208L23.7966 18.7813L20.1885 17.2908Z" stroke="white" stroke-width="1.2" stroke-miterlimit="10"/>
<path d="M7.17871 20.5234L11.5028 25.9826C12.0774 25.228 12.9347 24.7622 13.8485 24.6784L10.7962 21.0171C9.89185 19.9365 8.33745 19.7315 7.17871 20.5234Z" stroke="white" stroke-width="1.2" stroke-miterlimit="10"/>
<path d="M32.5954 29.3085C31.4084 28.2185 29.7974 27.6596 28.1865 27.7714L20.179 28.349C20.0659 28.349 19.9529 28.3397 19.8398 28.2931L15.4404 26.4764L15.3933 26.5137L15.3085 26.4205L14.9034 26.2528C14.0744 25.9082 13.1229 26.197 12.6236 26.9329C12.3316 27.3708 12.2374 27.8925 12.3599 28.4049C12.4917 28.9173 12.812 29.3365 13.2831 29.588L17.5035 31.8611C18.1818 32.2245 18.9543 32.4201 19.7268 32.4201H25.4451V33.8734H19.7268C18.7094 33.8734 17.6919 33.6219 16.797 33.1375L12.5765 30.8643C11.7569 30.4172 11.154 29.6532 10.9279 28.7589C10.8243 28.3583 10.8055 27.9484 10.862 27.5478L4.78567 19.862C4.16391 19.0794 3.00517 18.9304 2.20442 19.5266C1.40366 20.1228 1.23409 21.2687 1.81817 22.0699L12.9157 37.2272C14.0367 38.7644 15.8549 39.6122 17.7767 39.519L24.9741 39.1277C25.0683 39.1277 25.1625 39.1277 25.2661 39.1277C26.585 39.1277 27.8756 39.6122 28.8554 40.4879L31.9359 43.2361L39.2087 35.4013L32.5954 29.3272V29.3085Z" stroke="white" stroke-width="1.2" stroke-miterlimit="10"/>
</g>
<defs>
<clipPath id="clip0_2032_2968">
<rect width="40" height="44" fill="white"/>
</clipPath>
</defs>
</svg>
