<svg width="50" height="27" viewBox="0 0 50 27" fill="none" xmlns="http://www.w3.org/2000/svg">
<path d="M43.243 26.0144H29.8903V15.1299L24.559 11.3042L19.2278 15.1299V26.0144H5.875V11.2795L24.559 0L43.243 11.2795V26.0144ZM31.3218 24.6076H41.8362V12.0693L24.559 1.65367L7.28187 12.0693V24.6076H17.7963V14.4141L24.5343 9.57649L31.2724 14.4141V24.6076H31.3218Z" fill="#F8F7F5"/>
<path d="M31.3153 26.0131H17.8145V14.4128L24.5526 9.5752L31.2907 14.4128V26.0131H31.3153ZM19.2213 24.6063H29.8838V15.1286L24.5526 11.3029L19.2213 15.1286V24.6063Z" fill="#F8F7F5"/>
<path d="M13.3248 16.3213H11.918V19.4312H13.3248V16.3213Z" fill="#F8F7F5"/>
<path d="M14.1643 17.1562H11.0791V18.5631H14.1643V17.1562Z" fill="#F8F7F5"/>
<path d="M37.1871 16.3213H35.7803V19.4312H37.1871V16.3213Z" fill="#F8F7F5"/>
<path d="M38.0552 17.1562H34.9453V18.5631H38.0552V17.1562Z" fill="#F8F7F5"/>
<path d="M47.1351 26.9996L41.8779 11.8944L43.2108 11.4502L47.4313 23.6182L47.9003 22.7791L49.1343 23.4948L47.1351 26.9996Z" fill="#F8F7F5"/>
<path d="M1.99921 26.9996L0 23.4948L1.20945 22.7791L1.67841 23.6182L5.92358 11.4502L7.25641 11.8944L1.99921 26.9996Z" fill="#F8F7F5"/>
</svg>
