<svg width="203" height="24" viewBox="0 0 203 24" fill="none" xmlns="http://www.w3.org/2000/svg">
<path d="M0 0.62793H10.7687C18.316 0.62793 23.4889 5.01399 23.4889 11.9998C23.4889 18.9857 18.316 23.3718 10.7687 23.3718H0V0.62793ZM10.5082 18.2385C14.3804 18.2385 16.982 15.932 16.982 11.9998C16.982 8.06774 14.3796 5.76194 10.5082 5.76194H6.44202V18.2385H10.5082Z" fill="black"/>
<path d="M25.7024 12.0004C25.7024 5.17741 31.0701 0.173828 38.3577 0.173828C45.6453 0.173828 51.0131 5.17741 51.0131 12.0004C51.0131 18.8234 45.6453 23.827 38.3577 23.827C31.0701 23.827 25.7024 18.8234 25.7024 12.0004Z" fill="black"/>
<path d="M53.2266 12.0004C53.2266 5.08014 58.5294 0.173828 65.7513 0.173828C69.9481 0.173828 73.3311 1.7007 75.5438 4.46262L71.4444 8.16703C70.013 6.44488 68.2563 5.50239 66.0767 5.50239C62.3351 5.50239 59.7321 8.10146 59.7321 12.0011C59.7321 15.9008 62.3351 18.4992 66.0767 18.4992C68.2563 18.4992 70.013 17.5574 71.4444 15.8353L75.5438 19.5389C73.3311 22.3009 69.9481 23.8277 65.7513 23.8277C58.5294 23.8277 53.2266 18.9214 53.2266 12.0011" fill="black"/>
<path d="M87.1919 15.1192L84.785 17.6865V23.3725H78.408V0.62793H84.785V10.0831L93.6007 0.62793H100.693L91.3887 10.7007L101.181 23.3725H93.6981L87.1919 15.1192Z" fill="black"/>
<path d="M36.4985 4.50118L38.3578 0.538086L40.2163 4.50118H36.4985Z" fill="white"/>
<path d="M40.2163 19.5176L38.357 23.48L36.4985 19.5176H40.2163Z" fill="white"/>
<path d="M44.5471 17.2606C45.5103 16.2626 46.1871 15.0138 46.4728 13.5857L49.8427 12.0091L46.4756 10.4339C46.1928 9.00074 45.5168 7.74553 44.5515 6.74466L45.0753 5.29994L43.5306 5.85765C42.1389 4.85463 40.3612 4.26953 38.3562 4.26953C36.3512 4.26953 34.5742 4.85391 33.1818 5.85765L31.6379 5.29994L32.1616 6.74466C31.197 7.74553 30.521 9.00074 30.2375 10.4339L26.8711 12.0091L30.2411 13.5857C30.5268 15.0131 31.2035 16.2626 32.1667 17.2606L31.6386 18.7197L33.2013 18.1548C34.5908 19.1499 36.3613 19.7299 38.3569 19.7299C40.3525 19.7299 42.1237 19.1499 43.5126 18.1548L45.076 18.7197L44.5471 17.2606Z" fill="white"/>
<path d="M44.5471 17.2606C45.5103 16.2626 46.1871 15.0138 46.4728 13.5857L49.8427 12.0091L46.4756 10.4339C46.1928 9.00074 45.5168 7.74553 44.5515 6.74466L45.0753 5.29994L43.5306 5.85765C42.1389 4.85463 40.3612 4.26953 38.3562 4.26953C36.3512 4.26953 34.5742 4.85391 33.1818 5.85765L31.6379 5.29994L32.1616 6.74466C31.197 7.74553 30.521 9.00074 30.2375 10.4339L26.8711 12.0091L30.2411 13.5857C30.5268 15.0131 31.2035 16.2626 32.1667 17.2606L31.6386 18.7197L33.2013 18.1548C34.5908 19.1499 36.3613 19.7299 38.3569 19.7299C40.3525 19.7299 42.1237 19.1499 43.5126 18.1548L45.076 18.7197L44.5471 17.2606Z" fill="white"/>
<path d="M44.5471 17.2606C45.5103 16.2626 46.1871 15.0138 46.4728 13.5857L49.8427 12.0091L46.4756 10.4339C46.1928 9.00074 45.5168 7.74553 44.5515 6.74466L45.0753 5.29994L43.5306 5.85765C42.1389 4.85463 40.3612 4.26953 38.3562 4.26953C36.3512 4.26953 34.5742 4.85391 33.1818 5.85765L31.6379 5.29994L32.1616 6.74466C31.197 7.74553 30.521 9.00074 30.2375 10.4339L26.8711 12.0091L30.2411 13.5857C30.5268 15.0131 31.2035 16.2626 32.1667 17.2606L31.6386 18.7197L33.2013 18.1548C34.5908 19.1499 36.3613 19.7299 38.3569 19.7299C40.3525 19.7299 42.1237 19.1499 43.5126 18.1548L45.076 18.7197L44.5471 17.2606Z" fill="white"/>
<path d="M111.635 5.63674H104.538V0.460938H125.234V5.63674H118.171V23.5384H111.635V5.63674Z" fill="#060606"/>
<path d="M126.16 12.0002C126.16 5.07708 131.607 0 139 0C146.394 0 151.841 5.07708 151.841 12.0002C151.841 18.9234 146.395 23.9998 139 23.9998C131.606 23.9998 126.16 18.9227 126.16 12.0002ZM145.239 12.0002C145.239 8.01122 142.5 5.4071 139 5.4071C135.5 5.4071 132.762 8.01122 132.762 12.0002C132.762 15.9893 135.501 18.5934 139 18.5934C142.499 18.5934 145.239 15.9893 145.239 12.0002Z" fill="#060606"/>
<path d="M155.077 13.2524V0.460938H161.612V13.0549C161.612 17.0108 163.263 18.5932 166.003 18.5932C168.742 18.5932 170.36 17.0108 170.36 13.0549V0.460938H176.797V13.2524C176.797 20.1431 172.769 23.9996 165.936 23.9996C159.103 23.9996 155.076 20.1424 155.076 13.2524" fill="#060606"/>
<path d="M191.323 17.4064H187.758V23.5384H181.221V0.460938H191.784C198.089 0.460938 202.05 3.72509 202.05 8.9996C202.05 12.3949 200.399 14.9003 197.528 16.2852L202.512 23.5384H195.514L191.322 17.4064H191.323ZM191.389 5.60359H187.758V12.3617H191.389C194.095 12.3617 195.449 11.1087 195.449 8.99888C195.449 6.88908 194.096 5.60359 191.389 5.60359Z" fill="#060606"/>
<path d="M38.3569 18.4763C34.3492 18.4763 31.4409 15.7525 31.4409 11.9999C31.4409 8.24716 34.3492 5.52344 38.3569 5.52344C42.3647 5.52344 45.273 8.24716 45.273 11.9999C45.273 15.7525 42.3647 18.4763 38.3569 18.4763ZM38.3569 5.91831C34.5779 5.91831 31.8356 8.47558 31.8356 11.9999C31.8356 15.5241 34.5779 18.0814 38.3569 18.0814C42.136 18.0814 44.8783 15.5234 44.8783 11.9999C44.8783 8.4763 42.1353 5.91831 38.3569 5.91831Z" fill="black"/>
</svg>
