<svg width="188" height="23" viewBox="0 0 188 23" fill="none" xmlns="http://www.w3.org/2000/svg">
<g clip-path="url(#clip0_931_2860)">
<path d="M0 0.583082H9.99668C17.0032 0.583082 21.8051 4.66058 21.8051 11.1533C21.8051 17.6461 17.0032 21.7236 9.99668 21.7236H0V0.583082ZM9.75474 16.9529C13.3497 16.9529 15.765 14.8081 15.765 11.1547C15.765 7.50124 13.3497 5.35648 9.75474 5.35648H5.98034V16.9543H9.75474V16.9529Z" fill="#39C0CA"/>
<path d="M23.8602 11.1551C23.8602 4.81318 28.8429 0.162109 35.6089 0.162109C42.3748 0.162109 47.3575 4.81318 47.3575 11.1551C47.3575 17.4969 42.3748 22.148 35.6089 22.148C28.8429 22.148 23.8602 17.4969 23.8602 11.1551Z" fill="#39C0CA"/>
<path d="M49.4125 11.1551C49.4125 4.72212 54.3354 0.162109 61.0402 0.162109C64.9369 0.162109 68.0766 1.58108 70.1316 4.14855L66.326 7.59132C64.9967 5.99022 63.367 5.11492 61.3432 5.11492C57.8706 5.11492 55.454 7.53151 55.454 11.1551C55.454 14.7786 57.8706 17.1952 61.3432 17.1952C63.367 17.1952 64.9967 16.3199 66.326 14.7188L70.1316 18.1616C68.0779 20.729 64.9369 22.148 61.0402 22.148C54.3354 22.148 49.4125 17.588 49.4125 11.1551Z" fill="#39C0CA"/>
<path d="M80.9441 14.0533L78.7096 16.4387V21.7245H72.7891V0.583984H78.7096V9.37236L86.8931 0.583984H93.4783L84.8408 9.94593L93.9309 21.7245H86.9842L80.9441 14.0533Z" fill="#39C0CA"/>
<path d="M33.8827 4.18488L35.6088 0.500174L37.335 4.18488H33.8827Z" fill="#1C3C6D"/>
<path d="M37.3347 18.1426L35.6086 21.8259L33.8838 18.1426H37.3347Z" fill="#1C3C6D"/>
<path d="M41.3551 16.0432C42.2495 15.1163 42.8774 13.9542 43.1424 12.6276L46.2712 11.1624L43.1452 9.69862C42.8828 8.36663 42.2549 7.19911 41.3592 6.26944L41.8458 4.92658L40.4119 5.44578C39.1193 4.51339 37.4693 3.96973 35.6086 3.96973C33.7479 3.96973 32.0978 4.51339 30.8053 5.44578L29.3714 4.92658L29.8579 6.26944C28.9622 7.20047 28.3343 8.36663 28.072 9.69862L24.9473 11.1624L28.0761 12.6276C28.3411 13.9542 28.969 15.1163 29.8634 16.0432L29.3727 17.3997L30.8229 16.875C32.1128 17.8006 33.756 18.3388 35.6099 18.3388C37.4638 18.3388 39.1071 17.7993 40.3969 16.875L41.8485 17.3997L41.3578 16.0432H41.3551Z" fill="white"/>
<path d="M41.3551 16.0432C42.2495 15.1163 42.8774 13.9542 43.1424 12.6276L46.2712 11.1624L43.1452 9.69862C42.8828 8.36663 42.2549 7.19911 41.3592 6.26944L41.8458 4.92658L40.4119 5.44578C39.1193 4.51339 37.4693 3.96973 35.6086 3.96973C33.7479 3.96973 32.0978 4.51339 30.8053 5.44578L29.3714 4.92658L29.8579 6.26944C28.9622 7.20047 28.3343 8.36663 28.072 9.69862L24.9473 11.1624L28.0761 12.6276C28.3411 13.9542 28.969 15.1163 29.8634 16.0432L29.3727 17.3997L30.8229 16.875C32.1128 17.8006 33.756 18.3388 35.6099 18.3388C37.4638 18.3388 39.1071 17.7993 40.3969 16.875L41.8485 17.3997L41.3578 16.0432H41.3551Z" fill="white"/>
<path d="M41.3551 16.0432C42.2495 15.1163 42.8774 13.9542 43.1424 12.6276L46.2712 11.1624L43.1452 9.69862C42.8828 8.36663 42.2549 7.19911 41.3592 6.26944L41.8458 4.92658L40.4119 5.44578C39.1193 4.51339 37.4693 3.96973 35.6086 3.96973C33.7479 3.96973 32.0978 4.51339 30.8053 5.44578L29.3714 4.92658L29.8579 6.26944C28.9622 7.20047 28.3343 8.36663 28.072 9.69862L24.9473 11.1624L28.0761 12.6276C28.3411 13.9542 28.969 15.1163 29.8634 16.0432L29.3727 17.3997L30.8229 16.875C32.1128 17.8006 33.756 18.3388 35.6099 18.3388C37.4638 18.3388 39.1071 17.7993 40.3969 16.875L41.8485 17.3997L41.3578 16.0432H41.3551Z" fill="white"/>
<path d="M103.635 5.23959H97.0473V0.429497H116.26V5.23959H109.702V21.8799H103.635V5.23959Z" fill="white"/>
<path d="M117.119 11.1547C117.119 4.71903 122.176 0 129.039 0C135.903 0 140.959 4.71903 140.959 11.1547C140.959 17.5903 135.903 22.308 129.039 22.308C122.176 22.308 117.119 17.589 117.119 11.1547ZM134.831 11.1547C134.831 7.44688 132.288 5.0262 129.039 5.0262C125.791 5.0262 123.248 7.44688 123.248 11.1547C123.248 14.8625 125.791 17.2832 129.039 17.2832C132.288 17.2832 134.831 14.8625 134.831 11.1547Z" fill="white"/>
<path d="M143.964 12.3181V0.429497H150.032V12.136C150.032 15.8125 151.563 17.2845 154.108 17.2845C156.652 17.2845 158.153 15.8139 158.153 12.136V0.429497H164.129V12.3195C164.129 18.7239 160.39 22.3094 154.047 22.3094C147.703 22.3094 143.964 18.7239 143.964 12.3195" fill="white"/>
<path d="M177.612 16.1795H174.302V21.8785H168.235V0.429497H178.041C183.894 0.429497 187.572 3.46316 187.572 8.36567C187.572 11.5217 186.04 13.8513 183.373 15.1384L188 21.8799H181.503L177.612 16.1809V16.1795ZM177.674 5.20969H174.304V11.4918H177.674C180.188 11.4918 181.443 10.327 181.443 8.36567C181.443 6.4044 180.186 5.20969 177.674 5.20969Z" fill="white"/>
<path d="M35.6088 17.1744C31.8888 17.1744 29.1881 14.6423 29.1881 11.1547C29.1881 7.66706 31.8888 5.13493 35.6088 5.13493C39.3289 5.13493 42.0295 7.66706 42.0295 11.1547C42.0295 14.6423 39.3289 17.1744 35.6088 17.1744ZM35.6088 5.50055C32.1008 5.50055 29.5551 7.87773 29.5551 11.1533C29.5551 14.4289 32.1008 16.8061 35.6088 16.8061C39.1168 16.8061 41.6626 14.4289 41.6626 11.1533C41.6626 7.87773 39.1168 5.50055 35.6088 5.50055Z" fill="#39C0CA"/>
</g>
<defs>
<clipPath id="clip0_931_2860">
<rect width="188" height="22.308" fill="white"/>
</clipPath>
</defs>
</svg>
