<svg width="45" height="29" viewBox="0 0 45 29" fill="none" xmlns="http://www.w3.org/2000/svg">
<path d="M15.8777 13.48H10.2983V16.2726H15.8777V13.48Z" stroke="white" stroke-width="1.2" stroke-miterlimit="10"/>
<path d="M22.3963 13.48H16.8169V16.2726H22.3963V13.48Z" stroke="white" stroke-width="1.2" stroke-miterlimit="10"/>
<path d="M28.9149 13.48H23.3354V16.2726H28.9149V13.48Z" stroke="white" stroke-width="1.2" stroke-miterlimit="10"/>
<path d="M22.3963 8.75635H16.8169V11.549H22.3963V8.75635Z" stroke="white" stroke-width="1.2" stroke-miterlimit="10"/>
<path d="M28.9149 8.75635H23.3354V11.549H28.9149V8.75635Z" stroke="white" stroke-width="1.2" stroke-miterlimit="10"/>
<path d="M28.9149 4.02393H23.3354V6.81655H28.9149V4.02393Z" stroke="white" stroke-width="1.2" stroke-miterlimit="10"/>
<path d="M35.4246 8.75635H29.8452V11.549H35.4246V8.75635Z" stroke="white" stroke-width="1.2" stroke-miterlimit="10"/>
<path d="M1.70119 9.21761H2.40092V16.6738H7.51998V9.21761H7.98033C8.26575 9.21761 8.52354 9.0425 8.62482 8.77521L9.923 5.51254C10.0703 5.15309 9.89538 4.74756 9.5363 4.6001C9.45344 4.56323 9.36137 4.55401 9.27851 4.55401H4.03055V1.30056C4.03055 0.913462 3.71751 0.600098 3.33082 0.600098C2.94413 0.600098 2.63109 0.913462 2.63109 1.30056V4.56323H1.70119C1.3145 4.56323 1.00146 4.8766 1.00146 5.26369V8.52637C1.00146 8.91346 1.3145 9.22683 1.70119 9.22683V9.21761Z" stroke="white" stroke-width="1.2" stroke-miterlimit="10"/>
<path d="M35.4338 13.8394V13.48H29.8452V16.2818H32.994L35.4338 13.8394Z" stroke="white" stroke-width="1.2" stroke-miterlimit="10"/>
<path d="M42.593 15.8813H37.6949C37.4831 15.8813 37.2714 15.9643 37.1148 16.121L34.8039 18.4343C34.6474 18.591 34.4448 18.674 34.2331 18.674H1.41952C0.968375 18.674 0.600098 19.0426 0.600098 19.4943C0.600098 19.5956 0.618512 19.697 0.655339 19.7984L3.73046 27.485C3.85936 27.7984 4.15398 28.0012 4.48543 28.0012H32.1247C32.3364 28.0012 32.5482 27.9182 32.7047 27.7615L43.173 17.2731C43.4953 16.9505 43.4953 16.4343 43.173 16.121C43.0257 15.9643 42.8139 15.8813 42.6022 15.8813H42.593Z" stroke="white" stroke-width="1.2" stroke-miterlimit="10"/>
</svg>
