<svg width="39" height="39" viewBox="0 0 39 39" fill="none" xmlns="http://www.w3.org/2000/svg">
<path d="M18.103 4.18161C19.1939 2.31158 21.2198 1.11681 23.4015 1.11681C26.7779 1.11681 29.531 3.86992 29.531 7.24638C29.531 7.99959 29.4012 8.72684 29.1155 9.45407C29.0376 9.63588 29.0635 9.84364 29.1674 9.99948C29.2713 10.1553 29.4531 10.2592 29.6609 10.2592H30.4401C32.2062 10.2592 33.7905 11.5059 34.1801 13.2461C34.258 13.5577 34.5698 13.7655 34.8814 13.6876C35.1931 13.6097 35.4009 13.298 35.3229 12.9864C34.8035 10.7008 32.8036 9.09046 30.466 9.09046C30.6219 8.49309 30.6998 7.86971 30.6998 7.27234C30.6998 3.24656 27.4273 0 23.4275 0C21.0639 0 18.8303 1.16875 17.4797 3.06476C16.207 2.18169 14.7006 1.68821 13.1422 1.68821C9.03851 1.68821 5.66207 4.98677 5.61012 9.09046H4.9868C2.23369 9.09046 0 11.3241 0 14.1032C0 16.2329 1.3506 18.129 3.35051 18.8302C3.40245 18.8302 3.48039 18.8562 3.53233 18.8562C3.76609 18.8562 3.99982 18.7004 4.07774 18.4666C4.18163 18.1549 4.02583 17.8433 3.71416 17.7134C2.18177 17.168 1.14281 15.7135 1.14281 14.0772C1.14281 11.9734 2.85704 10.2333 4.9868 10.2333H6.20752C6.36336 10.2333 6.5192 10.1813 6.6231 10.0514C6.72699 9.94755 6.8049 9.7917 6.77893 9.63586C6.77893 9.55795 6.77893 9.50599 6.77893 9.42808C6.77893 9.35016 6.77893 9.27225 6.77893 9.19433C6.77893 5.68801 9.6359 2.83102 13.1682 2.83102C14.6746 2.83102 16.1032 3.35048 17.2719 4.33744C17.4018 4.44133 17.5836 4.49329 17.7394 4.46731C17.9212 4.44134 18.0511 4.33745 18.155 4.18161" fill="#F8F7F5"/>
<path d="M12.7782 17.4326H7.24596C5.32398 17.4326 3.76562 19.1468 3.76562 21.2506V30.4709C3.76562 30.7826 4.02536 31.0423 4.33703 31.0423H6.15507V36.7304C6.15507 37.6394 6.90832 38.3666 7.81737 38.3666H12.1548C13.0639 38.3666 13.8171 37.6394 13.8171 36.7304V31.0423H15.6352C15.9469 31.0423 16.2066 30.7826 16.2066 30.4709V21.2506C16.2066 19.1468 14.6482 17.4326 12.7263 17.4326M15.0897 29.8995H13.8431V25.3543C13.8431 25.0426 13.5833 24.7829 13.2717 24.7829C12.96 24.7829 12.7003 25.0426 12.7003 25.3543V36.7563C12.7003 37.0161 12.4665 37.2239 12.2068 37.2239H10.6224V30.7826C10.6224 30.4709 10.3627 30.2112 10.051 30.2112C9.73931 30.2112 9.45366 30.4709 9.45366 30.7826V37.2239H7.86928C7.58358 37.2239 7.37579 37.0161 7.37579 36.7563V25.3543C7.37579 25.0426 7.11606 24.7829 6.80439 24.7829C6.49272 24.7829 6.23307 25.0426 6.23307 25.3543V29.8995H4.98635V21.2766C4.98635 19.8221 6.02522 18.6274 7.29788 18.6274H12.8301C14.1028 18.6274 15.1417 19.8221 15.1417 21.2766V29.8995H15.0897Z" fill="#F8F7F5"/>
<path d="M9.94943 17.013C12.0013 17.013 13.6375 15.3507 13.6375 13.3248C13.6375 11.299 11.9753 9.63672 9.94943 9.63672C7.92356 9.63672 6.23535 11.299 6.23535 13.3248C6.23535 15.3507 7.89759 17.013 9.94943 17.013ZM9.94943 10.7795C11.352 10.7795 12.4947 11.9223 12.4947 13.3248C12.4947 14.7274 11.352 15.8702 9.94943 15.8702C8.54691 15.8702 7.40408 14.7274 7.40408 13.3248C7.40408 11.9223 8.54691 10.7795 9.94943 10.7795Z" fill="#F8F7F5"/>
<path d="M37.8502 20.4964L35.9282 20.2366C35.7204 19.4315 35.4087 18.6783 34.9931 17.977L36.1619 16.4706C36.3438 16.2368 36.3178 15.8732 36.11 15.6655L34.5776 14.1331C34.3698 13.9253 34.0322 13.8993 33.7984 14.0811L32.266 15.2499C31.5648 14.8343 30.8116 14.4967 30.0064 14.3149L29.7467 12.3929C29.6947 12.1072 29.461 11.8994 29.1753 11.8994H26.9936C26.7079 11.8994 26.4481 12.1072 26.4222 12.3929L26.1624 14.3149C25.3573 14.5226 24.6041 14.8343 23.9028 15.2499L22.3704 14.0811C22.1367 13.8993 21.799 13.9253 21.6172 14.1331L20.0588 15.6914C19.851 15.8992 19.8251 16.2369 20.0069 16.4446L21.1757 17.977C20.7601 18.6783 20.4225 19.4315 20.2406 20.2366L18.3187 20.4964C18.033 20.5224 17.8252 20.7821 17.8252 21.0678V23.2495C17.8252 23.5352 18.033 23.7949 18.3187 23.8209L20.2406 24.0806C20.4225 24.8857 20.7601 25.639 21.1757 26.3402L20.0069 27.8726C19.8251 28.1064 19.851 28.444 20.0588 28.6258L21.6172 30.1842C21.825 30.392 22.1626 30.418 22.3704 30.2362L23.9028 29.0674C24.6041 29.483 25.3573 29.7946 26.1624 30.0024L26.4222 31.9244C26.4741 32.2101 26.7079 32.4179 26.9936 32.4179H29.1753C29.461 32.4179 29.7207 32.2101 29.7467 31.9244L30.0064 30.0024C30.8116 29.7946 31.5648 29.483 32.266 29.0674L33.7724 30.2362C33.7724 30.2362 34.0322 30.366 34.1361 30.366C34.2919 30.366 34.4737 30.2881 34.5776 30.1842L36.11 28.6518C36.3178 28.444 36.3438 28.1323 36.1619 27.8986L34.9931 26.3662C35.4087 25.6649 35.7464 24.9117 35.9282 24.1066L37.8502 23.8468C38.1359 23.7949 38.3696 23.5611 38.3696 23.2754V21.0937C38.3696 20.808 38.1618 20.5483 37.8502 20.5223M37.2008 22.756L35.3827 22.9897C35.123 23.0157 34.9412 23.2235 34.8893 23.4573C34.7075 24.3923 34.3439 25.2754 33.8244 26.0545C33.6945 26.2623 33.6945 26.548 33.8244 26.7298L34.9412 28.1843L34.1101 29.0154L32.6556 27.8986C32.4478 27.7428 32.1881 27.7428 31.9803 27.8986C31.2011 28.444 30.318 28.8076 29.383 28.9635C29.1493 29.0154 28.9415 29.2232 28.9155 29.457L28.6818 31.2751H27.513L27.2792 29.457C27.2533 29.2232 27.0715 29.0154 26.8117 28.9635C25.8767 28.7817 24.9936 28.418 24.2145 27.8986C24.0067 27.7428 23.721 27.7687 23.5392 27.8986L22.0847 29.0154L21.2536 28.1843L22.3444 26.7558C22.5003 26.548 22.5003 26.2363 22.3444 26.0285C21.825 25.2494 21.4613 24.3923 21.2795 23.4573C21.2276 23.2235 21.0198 23.0157 20.786 22.9897L18.968 22.756V21.5872L20.786 21.3535C21.0458 21.3275 21.2276 21.1197 21.2795 20.886C21.4613 19.9509 21.825 19.0679 22.3444 18.2887C22.4743 18.0809 22.4743 17.7952 22.3444 17.6134L21.2276 16.1589L22.0588 15.3278L23.4872 16.4186C23.695 16.5745 24.0067 16.5745 24.2145 16.4446C24.9936 15.9252 25.8507 15.5616 26.7857 15.3798C27.0195 15.3278 27.2273 15.12 27.2533 14.8863L27.4871 13.0682H28.6558L28.8895 14.8863C28.9155 15.12 29.1233 15.3278 29.3571 15.3798C30.2921 15.5616 31.1752 15.9252 31.9544 16.4446C32.1622 16.5745 32.4478 16.5745 32.6296 16.4446L34.0841 15.3278L34.9152 16.1589L33.7984 17.6134C33.6426 17.8212 33.6426 18.0809 33.7984 18.2887C34.3438 19.0679 34.7075 19.9509 34.8633 20.886C34.9153 21.1457 35.0971 21.3275 35.3568 21.3535L37.1748 21.5872V22.756H37.2008Z" fill="#F8F7F5"/>
<path d="M30.8856 18.0719C30.0804 17.5265 29.1194 17.2148 28.0805 17.2148C25.3274 17.2148 23.0938 19.4485 23.0938 22.2016C23.0938 24.9547 25.3274 27.1624 28.0805 27.1624C30.8336 27.1624 33.0673 24.9287 33.0673 22.2016C33.0673 20.5134 32.2102 19.007 30.9116 18.0979M28.0805 25.9677C25.9767 25.9677 24.2625 24.2535 24.2625 22.1497C24.2625 20.0459 25.9767 18.3317 28.0805 18.3317C30.1843 18.3317 31.8985 20.0459 31.8985 22.1497C31.8985 24.2535 30.1843 25.9677 28.0805 25.9677Z" fill="#F8F7F5"/>
</svg>
