<svg width="34" height="34" viewBox="0 0 34 34" fill="none" xmlns="http://www.w3.org/2000/svg">
<path d="M4.55845 16.5657V9.75858H1.76095C1.16095 9.75858 0.643448 9.31578 0.560948 8.71537C0.478448 8.11496 0.883448 7.55208 1.48345 7.39447L20.4285 2.83136L20.5485 1.63054C20.631 0.992607 21.1485 0.549805 21.7485 0.549805C22.3485 0.549805 22.866 0.992607 22.9485 1.63054L23.106 3.10905L31.9035 7.51455C32.3835 7.75472 32.661 8.3176 32.541 8.87298C32.3835 9.35331 31.9035 9.75108 31.341 9.75108H23.826L26.106 30.165H30.141V32.5666H13.3484V30.165H17.391L19.671 9.75108H6.15595V16.5582H10.1534V22.9676H0.553448V16.5582H4.55095L4.55845 16.5657ZM21.7485 12.6405L21.5909 14.1641H21.951L21.7485 12.6405ZM22.1085 15.7627H21.426L21.2685 17.3613H22.311L22.1085 15.7627ZM22.4684 18.9674H21.066L20.9084 20.566H22.671L22.4684 18.9674ZM22.791 22.1645H20.6685L20.511 23.7631H22.986L22.7834 22.1645H22.791ZM23.151 25.3692H20.3085L20.151 26.9678H23.3535L23.151 25.3692ZM23.706 30.1725L23.5485 28.5739H19.986L19.8285 30.1725H23.706ZM26.271 7.35695L23.4285 5.91596L23.586 7.35695H26.2634H26.271ZM19.9109 7.35695L20.151 5.39811L11.9159 7.35695H19.9109ZM2.15845 21.369H8.55595V18.1643H2.15845V21.369Z" stroke="white" stroke-width="1.1" stroke-miterlimit="10"/>
</svg>
