<svg width="12" height="8" viewBox="0 0 12 8" fill="none" xmlns="http://www.w3.org/2000/svg">
<path d="M0.0158691 2.93018C-0.308259 -0.319864 4.42879 -1.24048 5.26782 2.09619C5.88074 4.53618 4.12893 6.74696 1.75806 7.1792C1.73693 7.08801 1.81002 7.06469 1.85474 7.01025C2.30053 6.46918 2.9612 6.05627 2.97095 5.23975C2.74513 5.22223 2.4878 5.26505 2.26685 5.23975C1.13108 5.1112 0.128898 4.05718 0.0158691 2.93018ZM6.99048 4.01123C5.81993 2.02663 7.49407 -0.305892 9.72974 0.0629883C11.5556 0.363876 12.219 2.18279 11.9368 3.84424C11.6613 5.46682 9.99777 7.00886 8.35864 7.1792H8.35767C8.86965 6.61368 9.54233 6.0671 9.57056 5.23975C8.56807 5.4226 7.50048 4.8755 6.99048 4.01123Z" fill="#EF4050"/>
</svg>
