<svg width="12" height="8" viewBox="0 0 12 8" fill="none" xmlns="http://www.w3.org/2000/svg">
<path d="M11.9834 2.93018C12.3075 -0.319864 7.57048 -1.24048 6.73145 2.09619C6.11853 4.53618 7.87034 6.74696 10.2412 7.1792C10.2623 7.08801 10.1892 7.06469 10.1445 7.01025C9.69874 6.46918 9.03806 6.05627 9.02832 5.23975C9.25414 5.22223 9.51147 5.26505 9.73242 5.23975C10.8682 5.1112 11.8704 4.05718 11.9834 2.93018ZM5.00879 4.01025C6.17933 2.02565 4.5052 -0.306869 2.26953 0.0620117C0.443695 0.362899 -0.219761 2.18181 0.0625 3.84326C0.33797 5.46584 2.0015 7.00789 3.64062 7.17822H3.6416C3.12962 6.6127 2.45694 6.06612 2.42871 5.23877C3.4312 5.42163 4.49879 4.87453 5.00879 4.01025Z" fill="#EF4050"/>
</svg>
