<svg width="37" height="42" viewBox="0 0 37 42" fill="none" xmlns="http://www.w3.org/2000/svg">
<path fill-rule="evenodd" clip-rule="evenodd" d="M15.97 35.73H17.28V37.04H15.97V35.73ZM15.46 38.06H17.8C18.08 38.06 18.31 37.83 18.31 37.55V35.21C18.31 34.93 18.08 34.7 17.8 34.7H15.46C15.18 34.7 14.95 34.93 14.95 35.21V37.55C14.95 37.83 15.18 38.06 15.46 38.06ZM15.97 31.44H17.28V32.75H15.97V31.44ZM15.46 33.78H17.8C18.08 33.78 18.31 33.55 18.31 33.27V30.93C18.31 30.65 18.08 30.42 17.8 30.42H15.46C15.18 30.42 14.95 30.65 14.95 30.93V33.27C14.95 33.55 15.18 33.78 15.46 33.78ZM15.97 27.16H17.28V28.47H15.97V27.16ZM15.46 29.5H17.8C18.08 29.5 18.31 29.27 18.31 28.99V26.65C18.31 26.37 18.08 26.14 17.8 26.14H15.46C15.18 26.14 14.95 26.37 14.95 26.65V28.99C14.95 29.27 15.18 29.5 15.46 29.5ZM15.97 22.88H17.28V24.19H15.97V22.88ZM15.46 25.22H17.8C18.08 25.22 18.31 24.99 18.31 24.71V22.37C18.31 22.09 18.08 21.86 17.8 21.86H15.46C15.18 21.86 14.95 22.09 14.95 22.37V24.71C14.95 24.99 15.18 25.22 15.46 25.22ZM19.56 20.95H13.69V40.22H19.56V20.95ZM12.65 18.82H16.37V19.92H12.65V18.82ZM12.67 40.22H10.38V35.17C10.38 34.89 10.15 34.66 9.87 34.66H5.87C5.59 34.66 5.36 34.89 5.36 35.17V40.22H3.07V20.95H12.68V40.22H12.67ZM9.35 35.68H6.38V40.21H9.35V35.68ZM6.25 18.82H11.63V19.92H6.25V18.82ZM8.62 16.7H14V17.8H8.62V16.7ZM10.79 14.51H11.84V15.67H10.79V14.51ZM20.08 19.92H17.4V18.31C17.4 18.03 17.17 17.8 16.89 17.8H15.03V16.19C15.03 15.91 14.8 15.68 14.52 15.68H12.87V14.01C12.87 13.73 12.64 13.5 12.36 13.5H10.28C10 13.5 9.77 13.73 9.77 14.01V15.68H8.12C7.84 15.68 7.61 15.91 7.61 16.19V17.8H5.75C5.47 17.8 5.24 18.03 5.24 18.31V19.92H2.56C2.28 19.92 2.05 20.15 2.05 20.43V40.73C2.05 41.01 2.28 41.24 2.56 41.24H20.09C20.37 41.24 20.6 41.01 20.6 40.73V20.43C20.6 20.15 20.37 19.92 20.09 19.92M9.32 32.76H10.63V31.45H9.32V32.76ZM8.81 33.78H11.15C11.43 33.78 11.66 33.55 11.66 33.27V30.93C11.66 30.65 11.43 30.42 11.15 30.42H8.81C8.53 30.42 8.3 30.65 8.3 30.93V33.27C8.3 33.55 8.53 33.78 8.81 33.78ZM9.32 28.47H10.63V27.16H9.32V28.47ZM8.81 29.5H11.15C11.43 29.5 11.66 29.27 11.66 28.99V26.65C11.66 26.37 11.43 26.14 11.15 26.14H8.81C8.53 26.14 8.3 26.37 8.3 26.65V28.99C8.3 29.27 8.53 29.5 8.81 29.5ZM9.32 24.19H10.63V22.88H9.32V24.19ZM8.81 25.22H11.15C11.43 25.22 11.66 24.99 11.66 24.71V22.37C11.66 22.09 11.43 21.86 11.15 21.86H8.81C8.53 21.86 8.3 22.09 8.3 22.37V24.71C8.3 24.99 8.53 25.22 8.81 25.22ZM5.09 32.76H6.4V31.45H5.09V32.76ZM4.58 33.78H6.92C7.2 33.78 7.43 33.55 7.43 33.27V30.93C7.43 30.65 7.2 30.42 6.92 30.42H4.58C4.3 30.42 4.07 30.65 4.07 30.93V33.27C4.07 33.55 4.3 33.78 4.58 33.78ZM5.09 28.47H6.4V27.16H5.09V28.47ZM4.58 29.5H6.92C7.2 29.5 7.43 29.27 7.43 28.99V26.65C7.43 26.37 7.2 26.14 6.92 26.14H4.58C4.3 26.14 4.07 26.37 4.07 26.65V28.99C4.07 29.27 4.3 29.5 4.58 29.5ZM5.09 24.19H6.4V22.88H5.09V24.19ZM4.58 25.22H6.92C7.2 25.22 7.43 24.99 7.43 24.71V22.37C7.43 22.09 7.2 21.86 6.92 21.86H4.58C4.3 21.86 4.07 22.09 4.07 22.37V24.71C4.07 24.99 4.3 25.22 4.58 25.22ZM35.26 8.64H33.55V6.21H35.26V8.64ZM28.83 6.92H32.52V7.93H28.83V6.92ZM27.78 5.09V1.52L32.87 5.21C32.67 5.28 32.53 5.47 32.53 5.69V5.89H28.84V5.6C28.84 5.32 28.61 5.09 28.33 5.09H27.79H27.78ZM27.81 8.72H24.69V6.12H27.81V8.72ZM26.75 37.89H25.74V9.75H26.75V37.89ZM28.93 39.56V40.21H23.57V39.56C23.57 39.2 23.86 38.91 24.22 38.91H28.28C28.64 38.91 28.93 39.2 28.93 39.56ZM23.66 5.6V5.89H6.68L24.72 1.18V5.09H24.18C23.9 5.09 23.67 5.32 23.67 5.6M5.16 6.92H23.66V7.93H5.16V6.92ZM2.51 9.46H3.74V11.47H2.51V9.46ZM5.22 14.65H1.02V12.5H5.23V14.65H5.22ZM2.1 6.4H4.13V8.43H2.1V6.4ZM26.75 5.09H25.74V1.03H26.75V5.1V5.09ZM35.77 5.18H34.57L27.57 0.1C27.49 0.04 27.38 0 27.27 0H25.24C25.24 0 25.15 0 25.11 0.02L4.58 5.38H1.59C1.31 5.38 1.08 5.61 1.08 5.89V8.95C1.08 9.2 1.25 9.4 1.48 9.45V11.47H0.51C0.23 11.47 0 11.7 0 11.98V15.16C0 15.44 0.23 15.67 0.51 15.67H5.74C6.02 15.67 6.25 15.44 6.25 15.16V11.98C6.25 11.7 6.02 11.47 5.74 11.47H4.76V9.45C4.99 9.4 5.16 9.19 5.16 8.95H23.66V9.23C23.66 9.51 23.89 9.74 24.17 9.74H24.71V37.88H24.21C23.28 37.88 22.53 38.63 22.53 39.56V40.73C22.53 41.01 22.76 41.24 23.04 41.24H29.43C29.71 41.24 29.94 41.01 29.94 40.73V39.56C29.94 38.64 29.19 37.88 28.26 37.88H27.76V9.75H28.3C28.58 9.75 28.81 9.52 28.81 9.24V8.96H32.5V9.16C32.5 9.44 32.73 9.67 33.01 9.67H35.74C36.02 9.67 36.25 9.44 36.25 9.16V5.7C36.25 5.42 36.02 5.19 35.74 5.19" fill="white"/>
</svg>
