<svg version="1.2" xmlns="http://www.w3.org/2000/svg" viewBox="0 0 83 84" width="83" height="84">
	<style>
		.s0 { fill: #eaeaea } 
		.s1 { fill: #ef4050 } 
		.s2 { fill: #1c3c6d } 
	</style>
	<g>
		<path fill-rule="evenodd" class="s0" d="m41 82c-22.12 0-40-17.88-40-40 0-22.12 17.88-40 40-40 22.12 0 40 17.88 40 40 0 22.12-17.88 40-40 40z"/>
	</g>
	<path class="s1" d="m47.33 59.68q-0.45-0.52-1-0.95-0.11-0.08-0.21-0.15c-1.94-1.43-4.11-2.49-6.4-3.33-0.46-0.17-0.96-0.24-1.43-0.08q-0.58 0.2-1.08 0.53c-0.49 0.32-0.94 0.69-1.4 1.04q-0.4 0.31-0.88 0.15c-0.35-0.12-0.72-0.23-1.06-0.38q-2.95-1.36-5.06-3.73c-0.71-0.79-1.35-1.62-1.81-2.57q-0.25-0.52 0.09-0.98 0.39-0.57 0.79-1.13c0.69-0.96 0.7-1.93 0.16-2.96-0.84-1.56-1.88-2.99-3.04-4.34q-0.72-0.86-1.62-1.56-0.22-0.16-0.45-0.32c-0.57-0.38-1.18-0.51-1.84-0.22q-0.1 0.04-0.2 0.08c-1.18 0.52-2.27 1.17-3.22 2.02-1.23 1.1-1.84 2.42-1.63 4.03q0.17 1.35 0.75 2.58c1.34 2.89 3.21 5.47 5.37 7.85 1.64 1.8 3.5 3.38 5.43 4.89 3.11 2.42 6.56 4.29 10.29 5.73 1.26 0.48 2.57 0.79 4 0.76 1.46-0.07 2.68-0.69 3.66-1.75 0.99-1.08 1.63-2.35 2.11-3.69 0.19-0.52 0.09-1.02-0.26-1.44q-0.03-0.04-0.06-0.08z"/>
	<path class="s2" d="m58.36 51.84c2.43-3.61 3.64-7.88 3.44-12.31-0.2-4.41-1.77-8.54-4.49-11.9q-1.46-1.81-3.34-3.29c-3.37-2.65-7.53-4.18-11.82-4.33-6.11-0.21-11.81 2.2-15.88 6.65-2.27 2.49-3.87 5.44-4.69 8.62q0.31-0.04 0.62-0.02 0.96 0.04 1.85 0.56c0.74-2.74 2.12-5.29 4.09-7.45 3.23-3.53 7.64-5.6 12.42-5.81 4.78-0.22 9.36 1.44 12.9 4.67 3.53 3.22 5.6 7.63 5.81 12.42 0.17 3.61-0.75 7.11-2.59 10.13l-2.47-3.05c-0.4-0.49-1.17-0.36-1.39 0.22l-3.11 9.1c-0.23 0.59 0.26 1.19 0.88 1.09l9.55-1.16c0.62-0.1 0.9-0.83 0.5-1.31z"/>
	<path class="s2" d="m49.01 31.14c-4.92-4.38-12.47-3.94-16.86 0.98-2.72 3.07-3.58 7.14-2.66 10.84q0.39 1.56 1.19 2.98 0.94 1.68 2.46 3.04c4.92 4.39 12.47 3.95 16.86-0.98 4.38-4.93 3.94-12.48-0.99-16.86zm-1 15.1c-0.41 0.47-1.14 0.51-1.6 0.09l-6.47-5.75-0.01-8.97q0.01-0.44 0.29-0.76c0.21-0.23 0.51-0.38 0.85-0.38 0.63 0 1.14 0.51 1.14 1.14l0.01 7.94 5.7 5.08c0.47 0.42 0.51 1.14 0.09 1.61z"/>
</svg>