<svg width="180" height="180" viewBox="0 0 180 180" fill="none" xmlns="http://www.w3.org/2000/svg">
<g filter="url(#filter0_d_2762_3168)">
<circle cx="90" cy="90" r="40" fill="#EAEAEA"/>
</g>
<path d="M96.3285 107.684C96.0223 107.343 95.6968 107.006 95.3286 106.73C95.2588 106.68 95.191 106.628 95.1212 106.577C93.1775 105.151 91.0129 104.087 88.7185 103.246C88.2592 103.077 87.7631 103.006 87.2883 103.168C86.9085 103.298 86.5383 103.479 86.205 103.696C85.7167 104.017 85.2709 104.391 84.8059 104.742C84.5423 104.942 84.2497 105.002 83.9299 104.891C83.5753 104.767 83.211 104.659 82.8718 104.506C80.899 103.61 79.2208 102.357 77.814 100.783C77.1048 99.9922 76.4556 99.1648 76.0002 98.2113C75.8335 97.8586 75.8568 97.5446 76.0874 97.2268C76.3568 96.8548 76.6087 96.473 76.8781 96.099C77.5738 95.1378 77.5816 94.1669 77.0351 93.1398C76.2037 91.5779 75.1611 90.1535 74.0003 88.7989C73.5139 88.2311 72.9848 87.704 72.3841 87.2447C72.2368 87.1323 72.0856 87.0238 71.9306 86.9191C71.3647 86.5393 70.7523 86.4134 70.0857 86.6982C70.0198 86.7254 69.9539 86.7544 69.888 86.7835C68.7098 87.3029 67.6168 87.9482 66.6672 88.797C65.4405 89.8958 64.8339 91.2232 65.0394 92.8298C65.1557 93.727 65.4018 94.5894 65.7855 95.4149C67.1323 98.3005 68.9985 100.878 71.1633 103.261C72.795 105.062 74.6573 106.641 76.5897 108.149C79.6961 110.573 83.1531 112.445 86.8838 113.877C88.1396 114.362 89.4477 114.672 90.8817 114.643C92.3352 114.571 93.5619 113.947 94.5386 112.887C95.5308 111.808 96.1684 110.538 96.6509 109.201C96.8408 108.676 96.7362 108.18 96.3932 107.757C96.3738 107.734 96.3525 107.709 96.3292 107.684L96.3285 107.684Z" fill="#EF4050"/>
<path d="M107.358 99.8447C109.79 96.2344 110.999 91.9577 110.799 87.5274C110.6 83.1226 109.026 78.9949 106.305 75.6269C105.336 74.4273 104.22 73.3246 102.97 72.3402C99.5982 69.6872 95.4374 68.162 91.149 68.0128C85.0425 67.8016 79.3358 70.2123 75.2737 74.6616C72.9966 77.1537 71.4036 80.1014 70.5781 83.2775C70.7835 83.2542 70.989 83.2465 71.1963 83.2561C71.8397 83.2871 72.4618 83.4771 73.0548 83.8239C73.7854 81.0779 75.171 78.5275 77.1438 76.369C80.3704 72.8361 84.7828 70.7704 89.5618 70.5551C94.3426 70.3381 98.9218 71.9969 102.457 75.2255C105.991 78.4541 108.055 82.8645 108.27 87.6455C108.435 91.2597 107.524 94.7576 105.677 97.7769L103.207 94.7286C102.813 94.2422 102.042 94.3662 101.819 94.9495L98.7068 104.052C98.4839 104.635 98.9742 105.242 99.5924 105.143L109.14 103.976C109.757 103.88 110.036 103.149 109.642 102.665L107.358 99.8447Z" fill="#1C3C6D"/>
<path d="M98.0135 79.1418C93.0854 74.7563 85.5389 75.1962 81.1539 80.1243C78.4292 83.1862 77.5668 87.2598 78.4912 90.9593C78.747 91.9922 79.1442 92.9941 79.6752 93.9359C80.305 95.0521 81.1267 96.0831 82.1383 96.9823C87.0645 101.366 94.6109 100.928 98.9959 95.9997C103.379 91.0736 102.94 83.5249 98.0135 79.1418ZM97.0136 94.2363C96.5969 94.7053 95.8741 94.7479 95.4051 94.3293L88.9364 88.5755L88.9306 79.6128C88.9286 79.3202 89.0391 79.0567 89.2193 78.8532C89.4267 78.6187 89.7329 78.4714 90.07 78.4714C90.6998 78.4695 91.2095 78.9811 91.2115 79.6109L91.2153 87.5526L96.9205 92.6297C97.3895 93.0464 97.4321 93.7673 97.0136 94.2363Z" fill="#1C3C6D"/>
<defs>
<filter id="filter0_d_2762_3168" x="0" y="0" width="180" height="180" filterUnits="userSpaceOnUse" color-interpolation-filters="sRGB">
<feFlood flood-opacity="0" result="BackgroundImageFix"/>
<feColorMatrix in="SourceAlpha" type="matrix" values="0 0 0 0 0 0 0 0 0 0 0 0 0 0 0 0 0 0 127 0" result="hardAlpha"/>
<feOffset/>
<feGaussianBlur stdDeviation="25"/>
<feComposite in2="hardAlpha" operator="out"/>
<feColorMatrix type="matrix" values="0 0 0 0 0 0 0 0 0 0 0 0 0 0 0 0 0 0 0.25 0"/>
<feBlend mode="normal" in2="BackgroundImageFix" result="effect1_dropShadow_2762_3168"/>
<feBlend mode="normal" in="SourceGraphic" in2="effect1_dropShadow_2762_3168" result="shape"/>
</filter>
</defs>
</svg>
