<svg width="266" height="32" viewBox="0 0 266 32" fill="none" xmlns="http://www.w3.org/2000/svg">
<g clip-path="url(#clip0_2095_637)">
<path d="M0 0.825001H14.1442C24.0577 0.825001 30.8519 6.59423 30.8519 15.7808C30.8519 24.9673 24.0577 30.7365 14.1442 30.7365H0V0.825001ZM13.8019 23.9865C18.8885 23.9865 22.3058 20.9519 22.3058 15.7827C22.3058 10.6135 18.8885 7.57885 13.8019 7.57885H8.46154V23.9885H13.8019V23.9865Z" fill="#39C0CA"/>
<path d="M33.7596 15.7827C33.7596 6.80962 40.8096 0.228846 50.3827 0.228846C59.9558 0.228846 67.0058 6.80962 67.0058 15.7827C67.0058 24.7558 59.9558 31.3365 50.3827 31.3365C40.8096 31.3365 33.7596 24.7558 33.7596 15.7827Z" fill="#39C0CA"/>
<path d="M69.9135 15.7827C69.9135 6.68077 76.8788 0.228846 86.3654 0.228846C91.8788 0.228846 96.3211 2.23654 99.2288 5.86923L93.8442 10.7404C91.9635 8.475 89.6577 7.23654 86.7942 7.23654C81.8808 7.23654 78.4615 10.6558 78.4615 15.7827C78.4615 20.9096 81.8808 24.3288 86.7942 24.3288C89.6577 24.3288 91.9635 23.0904 93.8442 20.825L99.2288 25.6962C96.3231 29.3288 91.8788 31.3365 86.3654 31.3365C76.8788 31.3365 69.9135 24.8846 69.9135 15.7827Z" fill="#39C0CA"/>
<path d="M114.527 19.8846L111.365 23.2596V30.7385H102.988V0.826923H111.365V13.2615L122.944 0.826923H132.262L120.04 14.0731L132.902 30.7385H123.073L114.527 19.8846Z" fill="#39C0CA"/>
<path d="M47.9404 5.92115L50.3827 0.707693L52.825 5.92115H47.9404Z" fill="#1C3C6D"/>
<path d="M52.825 25.6692L50.3827 30.8808L47.9423 25.6692H52.825Z" fill="#1C3C6D"/>
<path d="M58.5135 22.7C59.7788 21.3885 60.6673 19.7442 61.0423 17.8673L65.4692 15.7942L61.0462 13.7231C60.675 11.8385 59.7865 10.1865 58.5192 8.87116L59.2077 6.97116L57.1788 7.70577C55.35 6.38654 53.0154 5.61731 50.3827 5.61731C47.75 5.61731 45.4154 6.38654 43.5865 7.70577L41.5577 6.97116L42.2462 8.87116C40.9788 10.1885 40.0904 11.8385 39.7192 13.7231L35.2981 15.7942L39.725 17.8673C40.1 19.7442 40.9885 21.3885 42.2538 22.7L41.5596 24.6192L43.6115 23.8769C45.4365 25.1865 47.7615 25.9481 50.3846 25.9481C53.0077 25.9481 55.3327 25.1846 57.1577 23.8769L59.2115 24.6192L58.5173 22.7H58.5135Z" fill="white"/>
<path d="M58.5135 22.7C59.7788 21.3885 60.6673 19.7442 61.0423 17.8673L65.4692 15.7942L61.0462 13.7231C60.675 11.8385 59.7865 10.1865 58.5192 8.87116L59.2077 6.97116L57.1788 7.70577C55.35 6.38654 53.0154 5.61731 50.3827 5.61731C47.75 5.61731 45.4154 6.38654 43.5865 7.70577L41.5577 6.97116L42.2462 8.87116C40.9788 10.1885 40.0904 11.8385 39.7192 13.7231L35.2981 15.7942L39.725 17.8673C40.1 19.7442 40.9885 21.3885 42.2538 22.7L41.5596 24.6192L43.6115 23.8769C45.4365 25.1865 47.7615 25.9481 50.3846 25.9481C53.0077 25.9481 55.3327 25.1846 57.1577 23.8769L59.2115 24.6192L58.5173 22.7H58.5135Z" fill="white"/>
<path d="M58.5135 22.7C59.7788 21.3885 60.6673 19.7442 61.0423 17.8673L65.4692 15.7942L61.0462 13.7231C60.675 11.8385 59.7865 10.1865 58.5192 8.87116L59.2077 6.97116L57.1788 7.70577C55.35 6.38654 53.0154 5.61731 50.3827 5.61731C47.75 5.61731 45.4154 6.38654 43.5865 7.70577L41.5577 6.97116L42.2462 8.87116C40.9788 10.1885 40.0904 11.8385 39.7192 13.7231L35.2981 15.7942L39.725 17.8673C40.1 19.7442 40.9885 21.3885 42.2538 22.7L41.5596 24.6192L43.6115 23.8769C45.4365 25.1865 47.7615 25.9481 50.3846 25.9481C53.0077 25.9481 55.3327 25.1846 57.1577 23.8769L59.2115 24.6192L58.5173 22.7H58.5135Z" fill="white"/>
<path d="M146.633 7.41346H137.312V0.607693H164.496V7.41346H155.217V30.9577H146.633V7.41346Z" fill="#1C3C6D"/>
<path d="M165.712 15.7827C165.712 6.67692 172.865 0 182.577 0C192.288 0 199.442 6.67692 199.442 15.7827C199.442 24.8885 192.288 31.5635 182.577 31.5635C172.865 31.5635 165.712 24.8865 165.712 15.7827ZM190.771 15.7827C190.771 10.5365 187.173 7.11154 182.577 7.11154C177.981 7.11154 174.383 10.5365 174.383 15.7827C174.383 21.0288 177.981 24.4538 182.577 24.4538C187.173 24.4538 190.771 21.0288 190.771 15.7827Z" fill="#1C3C6D"/>
<path d="M203.694 17.4288V0.607693H212.279V17.1712C212.279 22.3731 214.446 24.4558 218.046 24.4558C221.646 24.4558 223.769 22.375 223.769 17.1712V0.607693H232.225V17.4308C232.225 26.4923 226.935 31.5654 217.96 31.5654C208.985 31.5654 203.694 26.4923 203.694 17.4308" fill="#1C3C6D"/>
<path d="M251.302 22.8923H246.619V30.9558H238.035V0.607693H251.91C260.19 0.607693 265.394 4.9 265.394 11.8365C265.394 16.3019 263.227 19.5981 259.454 21.4192L266 30.9577H256.808L251.302 22.8942V22.8923ZM251.39 7.37116H246.621V16.2596H251.39C254.946 16.2596 256.723 14.6115 256.723 11.8365C256.723 9.06154 254.944 7.37116 251.39 7.37116Z" fill="#1C3C6D"/>
<path d="M50.3827 24.3C45.1192 24.3 41.2981 20.7173 41.2981 15.7827C41.2981 10.8481 45.1192 7.26538 50.3827 7.26538C55.6462 7.26538 59.4673 10.8481 59.4673 15.7827C59.4673 20.7173 55.6462 24.3 50.3827 24.3ZM50.3827 7.78269C45.4192 7.78269 41.8173 11.1462 41.8173 15.7808C41.8173 20.4154 45.4192 23.7788 50.3827 23.7788C55.3462 23.7788 58.9481 20.4154 58.9481 15.7808C58.9481 11.1462 55.3462 7.78269 50.3827 7.78269Z" fill="#39C0CA"/>
</g>
<defs>
<clipPath id="clip0_2095_637">
<rect width="266" height="31.5635" fill="white"/>
</clipPath>
</defs>
</svg>
