<?xml version="1.0" encoding="UTF-8"?>
<svg id="Layer_1" data-name="Layer 1" xmlns="http://www.w3.org/2000/svg" viewBox="0 0 68 30">
  <defs>
    <style>
      .cls-1 {
        stroke: #ea1f27;
      }


      .cls-1, .cls-2 {
        fill: none;
        stroke-linecap: round;
        stroke-linejoin: round;
        stroke-width: .6px;
      }


      .cls-3 {
        fill: #666;
        stroke: #fff;
        stroke-miterlimit: 10;
        stroke-width: .25px;
      }


      .cls-2 {
        stroke: #666;
      }
    </style>
  </defs>
  <g>
    <path class="cls-3" d="M55.99,25.08h-3.16v-9.01c0-.23-.19-.41-.41-.41s-.41.19-.41.41v9.01h-1.89c-.23,0-.42.19-.42.41s.19.41.42.41h5.89v-.83Z"/>
    <path class="cls-3" d="M65.67,4.5c-.19-.83-.92-1.4-1.77-1.4H18.98l-1.94-2.21c-.08-.09-.19-.14-.31-.14H4.46c-.23,0-.41.19-.41.41v1.94h-1.28c-.94,0-1.73.73-1.81,1.67C.69,8.07.07,16.59,0,24.09c0,.49.18.95.52,1.29.34.35.8.54,1.29.54h4.85c.23,0,.42-.19.42-.41s-.19-.41-.42-.41H1.81c-.26,0-.51-.1-.7-.29-.19-.19-.29-.44-.28-.7.02-2.06.08-4.2.17-6.28,8.54.06,35.73.31,38.99.82,1.5.23,2.76.86,3.76,1.85.08.08.19.12.29.12s.21-.04.29-.12c.16-.16.16-.43,0-.59-1.13-1.12-2.54-1.81-4.22-2.08-3.32-.52-30.5-.76-39.09-.83.22-5.16.57-9.88.75-12.15.04-.51.47-.9.98-.9h61.14c.46,0,.85.31.96.76.09.37.19.82.3,1.35h-11.6c-.86,0-1.55.58-1.55,1.29v6.51c0,.2.15.38.35.41l7.59.64c.05.03.11.04.17.04.02,0,.03,0,.05,0,.02,0,.03-.01.05-.02l6.41.54c.06.57.12,1.14.17,1.74l-3.18-.08c-.33-.02-.64.13-.82.41-.18.28-.21.62-.06.92l.71,1.46c.15.31.45.5.79.52l2.8.04c.07,1.18.11,2.39.13,3.64,0,.27-.1.52-.28.7-.19.19-.44.29-.7.29h-2.72v.83h2.72c.49,0,.95-.19,1.29-.54.34-.35.53-.81.52-1.3-.15-9.23-1.68-16.76-2.33-19.57ZM4.87,3.09v-1.52h11.66l1.34,1.52H4.87ZM52.83,13.47v-6.15c0-.22.3-.46.72-.46h5.19l.9,7.17-6.81-.56ZM60.48,14.1l-.9-7.24h5.75c.38,1.92.84,4.57,1.21,7.74l-6.06-.5ZM64.27,19.57s-.07-.02-.08-.05l-.71-1.46s0-.07,0-.09c.01-.02.04-.04.08-.04l3.3.09c.04.53.08,1.06.12,1.6l-2.71-.04Z"/>
  </g>
  <path class="cls-3" d="M42.27,25.08H14.4c-.23,0-.41.19-.41.41s.19.41.41.41h27.87c.23,0,.42-.19.42-.41s-.19-.41-.42-.41Z"/>
  <path class="cls-3" d="M47.16,6.21H6.33c-.39,0-.75.17-1,.47-.25.3-.35.68-.29,1.06l.87,4.96c.11.62.65,1.08,1.28,1.08h39.96c.72,0,1.3-.58,1.3-1.3v-4.96c0-.72-.58-1.3-1.3-1.3ZM18.49,7.04h5.14v5.91h-5.14v-5.91ZM17.66,12.95h-5.14v-5.91h5.14v5.91ZM24.46,7.04h5.14v5.91h-5.14v-5.91ZM30.43,7.04h5.14v5.91h-5.14v-5.91ZM36.4,7.04h5.14v5.91h-5.14v-5.91ZM6.74,12.56l-.87-4.96c-.02-.14.01-.28.1-.39.09-.11.22-.17.36-.17h5.35v5.91h-4.48c-.23,0-.43-.16-.47-.39ZM47.63,12.48c0,.26-.21.47-.47.47h-4.78v-5.91h4.78c.26,0,.47.21.47.47v4.96Z"/>
  <circle class="cls-2" cx="59.64" cy="25.5" r="3.76"/>
  <circle class="cls-2" cx="59.64" cy="25.5" r="1.74"/>
  <g>
    <circle class="cls-1" cx="10.56" cy="25.5" r="3.76"/>
    <circle class="cls-1" cx="10.56" cy="25.5" r="1.74"/>
    <circle class="cls-1" cx="46.14" cy="25.5" r="3.76"/>
    <circle class="cls-1" cx="46.14" cy="25.5" r="1.74"/>
  </g>
</svg>